<!-- Generated by IcoMoon.io -->
<svg version="1.1" xmlns="http://www.w3.org/2000/svg" width="464" height="448" viewBox="0 0 464 448">
<g id="icomoon-ignore">
</g>
<path style="fill:rgb(250, 5, 5)" d="M160 352c0-17.5-14.5-32-32-32s-32 14.5-32 32 14.5 32 32 32 32-14.5 32-32zM64 224h96v-64h-39.5c-1 0-4.75 1.5-5.5 2.25l-48.75 48.75c-0.75 0.75-2.25 4.5-2.25 5.5v7.5zM384 352c0-17.5-14.5-32-32-32s-32 14.5-32 32 14.5 32 32 32 32-14.5 32-32zM448 80v256c0 18.5-19.5 16-32 16 0 35.25-28.75 64-64 64s-64-28.75-64-64h-96c0 35.25-28.75 64-64 64s-64-28.75-64-64h-16c-12.5 0-32 2.5-32-16 0-8.75 7.25-16 16-16v-80c0-17.75-2.5-37.5 11.25-51.25l49.5-49.5c6.25-6.25 18.25-11.25 27.25-11.25h40v-48c0-8.75 7.25-16 16-16h256c8.75 0 16 7.25 16 16z"></path>
</svg>
